<?xml version="1.0" standalone="no"?>
<!DOCTYPE svg PUBLIC "-//W3C//DTD SVG 20010904//EN"
 "http://www.w3.org/TR/2001/REC-SVG-20010904/DTD/svg10.dtd">
<svg version="1.0" xmlns="http://www.w3.org/2000/svg"
 width="512.000000pt" height="512.000000pt" viewBox="0 0 512.000000 512.000000"
 preserveAspectRatio="xMidYMid meet">
<metadata>
Created by potrace 1.14, written by Peter Selinger 2001-2017
</metadata>
<g transform="translate(0.000000,512.000000) scale(0.100000,-0.100000)"
fill="#000000" stroke="none">
<path d="M2290 4944 c-155 -20 -180 -25 -285 -49 -733 -174 -1354 -698 -1652
-1395 -55 -128 -109 -299 -138 -434 -42 -201 -50 -281 -50 -521 1 -110 7 -238
14 -285 7 -47 15 -101 17 -120 9 -58 61 -260 90 -345 66 -197 168 -404 278
-564 28 -40 56 -81 61 -90 6 -9 18 -25 27 -36 9 -11 41 -49 70 -85 275 -337
681 -608 1123 -749 90 -29 199 -58 250 -66 11 -2 47 -8 80 -14 201 -36 581
-36 768 0 28 5 66 12 82 15 62 10 153 34 245 62 512 160 949 482 1268 935 34
48 62 90 62 92 0 3 12 24 26 46 48 77 142 274 182 384 113 307 151 532 147
870 -5 339 -61 608 -191 911 -41 96 -54 123 -127 254 -30 54 -125 200 -136
210 -3 3 -26 32 -51 65 -61 81 -99 124 -206 230 -109 109 -120 118 -255 220
-321 241 -700 397 -1114 456 -115 16 -471 19 -585 3z m560 -162 c36 -7 83 -14
105 -17 22 -4 56 -10 75 -15 19 -5 46 -11 60 -14 89 -17 254 -75 392 -136 377
-168 729 -473 960 -830 243 -375 359 -785 353 -1245 -3 -199 -20 -334 -66
-518 -181 -723 -736 -1324 -1444 -1565 -256 -87 -442 -117 -725 -117 -263 0
-475 32 -695 106 -67 23 -69 23 -180 70 -738 307 -1278 1036 -1353 1829 -13
140 -7 438 12 555 80 499 288 909 640 1261 256 255 552 436 899 548 135 44
236 66 422 91 107 14 452 12 545 -3z"/>
<path d="M1440 4035 l0 -445 -69 -88 c-158 -202 -262 -429 -307 -673 -30 -164
-26 -404 10 -596 13 -68 79 -252 121 -338 96 -196 264 -403 430 -530 41 -32
76 -63 76 -69 1 -6 1 -20 1 -31 -8 -201 -3 -293 17 -347 75 -198 333 -259 494
-117 56 49 96 128 104 203 5 47 9 56 22 50 9 -3 90 -8 181 -9 198 -4 299 9
516 71 21 5 22 2 22 -68 1 -135 66 -244 179 -299 73 -35 188 -33 265 4 85 42
156 132 172 218 3 13 5 146 5 295 1 269 1 271 24 295 68 70 169 223 226 342
96 201 141 390 146 612 5 217 -13 342 -79 540 -54 159 -163 352 -278 487 l-37
44 -1 302 c-1 323 -5 353 -56 432 -139 219 -473 207 -594 -22 -18 -34 -53
-164 -62 -230 -2 -15 -7 -30 -10 -33 -3 -3 -50 3 -104 14 -85 17 -181 28 -271
30 l-23 1 0 200 0 200 -80 0 -80 0 -1 -502 c-1 -277 -2 -507 -3 -513 -16 -98
-65 -183 -147 -256 -152 -135 -171 -202 -154 -564 1 -38 6 -142 9 -230 10
-244 15 -369 21 -490 2 -60 7 -180 10 -265 3 -85 8 -198 10 -250 18 -386 17
-408 -6 -450 -41 -73 -145 -99 -214 -54 -37 24 -65 77 -67 126 -1 38 9 393 17
613 2 44 6 184 10 310 4 127 8 271 10 320 8 207 18 574 18 621 -2 119 -49 211
-157 308 -60 53 -83 83 -111 139 -19 40 -37 86 -39 102 -2 17 -5 256 -5 533
l-1 502 -80 0 -80 0 0 -445z m1958 272 c41 -15 91 -62 108 -102 11 -24 13
-329 14 -1619 l0 -1588 -22 -39 c-47 -85 -177 -102 -240 -32 -18 20 -50 88
-44 94 2 2 7 56 11 119 4 63 8 131 10 150 2 19 6 80 10 135 4 55 9 118 11 140
2 22 6 81 9 130 3 50 8 110 10 135 2 25 7 90 10 145 4 55 8 116 10 135 2 19 7
81 10 137 l7 102 -27 26 c-26 24 -34 25 -138 25 l-109 0 5 543 c3 298 8 565
11 592 19 176 22 197 31 270 6 42 32 195 39 230 2 11 9 49 16 85 30 156 134
232 258 187z m-643 -403 c59 -9 75 -12 128 -25 l48 -11 -7 -67 c-3 -36 -8 -74
-10 -84 -2 -10 -6 -48 -10 -85 -3 -37 -8 -80 -11 -97 -2 -16 -7 -302 -10 -635
-6 -727 -23 -653 151 -658 64 -2 114 -7 112 -10 -2 -4 -7 -52 -10 -107 -4 -55
-9 -116 -11 -135 -2 -19 -7 -80 -10 -135 -6 -100 -12 -186 -20 -280 -8 -90
-17 -240 -17 -256 1 -18 -138 -69 -238 -89 -30 -5 -66 -13 -80 -16 -79 -19
-421 -8 -442 14 -3 4 -9 84 -13 177 -3 94 -8 220 -11 280 -5 122 -9 238 -19
490 -4 94 -8 199 -10 235 -2 36 -7 169 -10 296 -7 216 -6 234 12 275 11 24 32
55 48 69 101 91 149 149 185 224 21 45 41 97 45 116 3 19 8 44 10 55 2 11 4
123 4 248 l1 228 78 -5 c42 -4 95 -9 117 -12z m-1221 -694 c26 -39 72 -88 140
-150 22 -19 48 -55 59 -79 19 -42 19 -59 12 -330 -4 -157 -8 -320 -10 -361 -1
-41 -6 -174 -9 -295 -13 -433 -15 -488 -19 -491 -4 -4 -150 138 -190 184 -46
54 -135 188 -167 253 -69 136 -116 284 -138 439 -9 62 -8 314 1 375 30 194
105 389 213 551 l37 55 23 -56 c12 -31 34 -74 48 -95z m2223 -8 c73 -134 134
-322 151 -467 13 -110 7 -335 -12 -425 -27 -134 -83 -290 -142 -396 -30 -54
-58 -102 -64 -108 -7 -7 -10 242 -10 754 1 859 -7 795 77 642z"/>
<path d="M1760 4040 l0 -440 80 0 80 0 0 440 0 440 -80 0 -80 0 0 -440z"/>
<path d="M2080 4040 l0 -440 80 0 80 0 0 440 0 440 -80 0 -80 0 0 -440z"/>
<path d="M1075 4017 c-16 -18 -45 -50 -63 -71 l-32 -37 61 -51 61 -51 64 69
63 69 -52 53 c-28 28 -56 52 -62 52 -5 -1 -23 -16 -40 -33z"/>
<path d="M810 3683 c-56 -86 -141 -252 -182 -353 -70 -172 -130 -421 -132
-544 -1 -56 0 -59 24 -62 83 -9 109 -11 118 -5 5 3 13 35 16 70 3 35 8 73 11
85 3 11 7 32 9 46 34 204 153 497 279 689 20 30 34 57 32 61 -2 3 -31 25 -64
49 l-61 42 -50 -78z"/>
</g>
</svg>
